<svg width="48" height="48" viewBox="0 0 48 48" xmlns="http://www.w3.org/2000/svg">
  <style>
    .light-mode { fill: #000000; }
    .dark-mode { fill: #ffffff; }

    @media (prefers-color-scheme: dark) {
      .light-mode { display: none; }
    }

    @media (prefers-color-scheme: light) {
      .dark-mode { display: none; }
    }
  </style>

  <!-- Light mode version -->
  <g class="light-mode">
    <path d="M24 0C35.0457 0 43.9999 8.51489 44 19.0186C44 29.5223 35.0457 38.0371 24 38.0371C12.9543 38.0371 4 29.5223 4 19.0186C4.00006 8.51489 12.9543 0 24 0ZM24.001 5.59375C16.1112 5.59375 9.71484 11.6042 9.71484 19.0186C9.71491 26.4329 16.1112 32.4434 24.001 32.4434C31.8905 32.4431 38.2861 26.4328 38.2861 19.0186C38.2861 11.6043 31.8906 5.59396 24.001 5.59375Z"/>
    <rect x="8" y="44" width="32" height="4"/>
  </g>

  <!-- Dark mode version -->
  <g class="dark-mode">
    <path d="M24 0C35.0457 0 43.9999 8.51489 44 19.0186C44 29.5223 35.0457 38.0371 24 38.0371C12.9543 38.0371 4 29.5223 4 19.0186C4.00006 8.51489 12.9543 0 24 0ZM24.001 5.59375C16.1112 5.59375 9.71484 11.6042 9.71484 19.0186C9.71491 26.4329 16.1112 32.4434 24.001 32.4434C31.8905 32.4431 38.2861 26.4328 38.2861 19.0186C38.2861 11.6043 31.8906 5.59396 24.001 5.59375Z"/>
    <rect x="8" y="44" width="32" height="4"/>
  </g>
</svg>
